<?xml version="1.0" encoding="UTF-8" standalone="no"?>
<!-- Generator: Adobe Illustrator 16.0.0, SVG Export Plug-In . SVG Version: 6.00 Build 0)  -->

<svg
   xmlns:dc="http://purl.org/dc/elements/1.1/"
   xmlns:cc="http://creativecommons.org/ns#"
   xmlns:rdf="http://www.w3.org/1999/02/22-rdf-syntax-ns#"
   xmlns:svg="http://www.w3.org/2000/svg"
   xmlns="http://www.w3.org/2000/svg"
   xmlns:sodipodi="http://sodipodi.sourceforge.net/DTD/sodipodi-0.dtd"
   xmlns:inkscape="http://www.inkscape.org/namespaces/inkscape"
   version="1.1"
   id="Calque_1"
   x="0px"
   y="0px"
   width="395.35001"
   height="368.54501"
   viewBox="0 0 395.35001 368.54501"
   enable-background="new 0 0 612 792"
   xml:space="preserve"
   sodipodi:docname="24h.svg"
   inkscape:version="0.92.1 r15371"><metadata
     id="metadata4645"><rdf:RDF><cc:Work
         rdf:about=""><dc:format>image/svg+xml</dc:format><dc:type
           rdf:resource="http://purl.org/dc/dcmitype/StillImage" /></cc:Work></rdf:RDF></metadata><defs
     id="defs4643" /><sodipodi:namedview
     pagecolor="#ffffff"
     bordercolor="#666666"
     borderopacity="1"
     objecttolerance="10"
     gridtolerance="10"
     guidetolerance="10"
     inkscape:pageopacity="0"
     inkscape:pageshadow="2"
     inkscape:window-width="1366"
     inkscape:window-height="705"
     id="namedview4641"
     showgrid="false"
     inkscape:zoom="0.67676768"
     inkscape:cx="186.4641"
     inkscape:cy="186.17"
     inkscape:window-x="1912"
     inkscape:window-y="477"
     inkscape:window-maximized="1"
     inkscape:current-layer="Calque_1" /><g
     id="cales"
     display="none"
     style="display:none"
     transform="translate(-107.715,-213.625)"><rect
       x="-3441.2759"
       y="89.388"
       display="inline"
       stroke-miterlimit="10"
       width="612"
       height="612"
       id="rect4485"
       style="display:inline;fill:none;stroke:#000000;stroke-width:0.5;stroke-miterlimit:10" /><rect
       x="-3337.2361"
       y="193.42799"
       display="inline"
       stroke-miterlimit="10"
       width="403.92001"
       height="403.92001"
       id="rect4487"
       style="display:inline;fill:none;stroke:#000000;stroke-width:0.5;stroke-miterlimit:10" /><rect
       x="-2747.2681"
       y="89.388"
       display="inline"
       stroke-miterlimit="10"
       width="612"
       height="612"
       id="rect4489"
       style="display:inline;fill:none;stroke:#000000;stroke-width:0.5;stroke-miterlimit:10" /><rect
       x="-2643.228"
       y="193.42799"
       display="inline"
       stroke-miterlimit="10"
       width="403.92001"
       height="403.92001"
       id="rect4491"
       style="display:inline;fill:none;stroke:#000000;stroke-width:0.5;stroke-miterlimit:10" /><rect
       x="-2043.468"
       y="89.388"
       display="inline"
       stroke-miterlimit="10"
       width="612"
       height="612"
       id="rect4493"
       style="display:inline;fill:none;stroke:#000000;stroke-width:0.5;stroke-miterlimit:10" /><rect
       x="-1939.428"
       y="193.42799"
       display="inline"
       stroke-miterlimit="10"
       width="403.92001"
       height="403.92001"
       id="rect4495"
       style="display:inline;fill:none;stroke:#000000;stroke-width:0.5;stroke-miterlimit:10" /><rect
       x="-1362.924"
       y="89.388"
       display="inline"
       stroke-miterlimit="10"
       width="612"
       height="612"
       id="rect4497"
       style="display:inline;fill:none;stroke:#000000;stroke-width:0.5;stroke-miterlimit:10" /><rect
       x="-1258.884"
       y="193.42799"
       display="inline"
       stroke-miterlimit="10"
       width="403.92001"
       height="403.92001"
       id="rect4499"
       style="display:inline;fill:none;stroke:#000000;stroke-width:0.5;stroke-miterlimit:10" /><rect
       x="-675.03601"
       y="89.388"
       display="inline"
       stroke-miterlimit="10"
       width="612"
       height="612"
       id="rect4501"
       style="display:inline;fill:none;stroke:#000000;stroke-width:0.5;stroke-miterlimit:10" /><rect
       x="-570.99597"
       y="193.42799"
       display="inline"
       stroke-miterlimit="10"
       width="403.92001"
       height="403.92001"
       id="rect4503"
       style="display:inline;fill:none;stroke:#000000;stroke-width:0.5;stroke-miterlimit:10" /><rect
       x="0.61199999"
       y="89.388"
       display="inline"
       stroke-miterlimit="10"
       width="612"
       height="612"
       id="rect4505"
       style="display:inline;fill:none;stroke:#000000;stroke-width:0.5;stroke-miterlimit:10" /><rect
       x="104.652"
       y="193.42799"
       display="inline"
       stroke-miterlimit="10"
       width="403.92001"
       height="403.92001"
       id="rect4507"
       style="display:inline;fill:none;stroke:#000000;stroke-width:0.5;stroke-miterlimit:10" /><rect
       x="726.44397"
       y="89.388"
       display="inline"
       stroke-miterlimit="10"
       width="612"
       height="612"
       id="rect4509"
       style="display:inline;fill:none;stroke:#000000;stroke-width:0.5;stroke-miterlimit:10" /><rect
       x="830.48401"
       y="193.42799"
       display="inline"
       stroke-miterlimit="10"
       width="403.92001"
       height="403.92001"
       id="rect4511"
       style="display:inline;fill:none;stroke:#000000;stroke-width:0.5;stroke-miterlimit:10" /><rect
       x="-3441.2759"
       y="790.73999"
       display="inline"
       stroke-miterlimit="10"
       width="612"
       height="612"
       id="rect4513"
       style="display:inline;fill:none;stroke:#000000;stroke-width:0.5;stroke-miterlimit:10" /><rect
       x="-3337.2361"
       y="894.78003"
       display="inline"
       stroke-miterlimit="10"
       width="403.92001"
       height="403.92001"
       id="rect4515"
       style="display:inline;fill:none;stroke:#000000;stroke-width:0.5;stroke-miterlimit:10" /><rect
       x="-2747.2681"
       y="790.73999"
       display="inline"
       stroke-miterlimit="10"
       width="612"
       height="612"
       id="rect4517"
       style="display:inline;fill:none;stroke:#000000;stroke-width:0.5;stroke-miterlimit:10" /><rect
       x="-2643.228"
       y="894.78003"
       display="inline"
       stroke-miterlimit="10"
       width="403.92001"
       height="403.92001"
       id="rect4519"
       style="display:inline;fill:none;stroke:#000000;stroke-width:0.5;stroke-miterlimit:10" /><rect
       x="-2043.468"
       y="790.73999"
       display="inline"
       stroke-miterlimit="10"
       width="612"
       height="612"
       id="rect4521"
       style="display:inline;fill:none;stroke:#000000;stroke-width:0.5;stroke-miterlimit:10" /><rect
       x="-1939.428"
       y="894.78003"
       display="inline"
       stroke-miterlimit="10"
       width="403.92001"
       height="403.92001"
       id="rect4523"
       style="display:inline;fill:none;stroke:#000000;stroke-width:0.5;stroke-miterlimit:10" /><rect
       x="-1362.924"
       y="790.73999"
       display="inline"
       stroke-miterlimit="10"
       width="612"
       height="612"
       id="rect4525"
       style="display:inline;fill:none;stroke:#000000;stroke-width:0.5;stroke-miterlimit:10" /><rect
       x="-1258.884"
       y="894.78003"
       display="inline"
       stroke-miterlimit="10"
       width="403.92001"
       height="403.92001"
       id="rect4527"
       style="display:inline;fill:none;stroke:#000000;stroke-width:0.5;stroke-miterlimit:10" /><rect
       x="-675.03601"
       y="790.73999"
       display="inline"
       stroke-miterlimit="10"
       width="612"
       height="612"
       id="rect4529"
       style="display:inline;fill:none;stroke:#000000;stroke-width:0.5;stroke-miterlimit:10" /><rect
       x="-570.99597"
       y="894.78003"
       display="inline"
       stroke-miterlimit="10"
       width="403.92001"
       height="403.92001"
       id="rect4531"
       style="display:inline;fill:none;stroke:#000000;stroke-width:0.5;stroke-miterlimit:10" /><rect
       x="1.102"
       y="790.25"
       display="inline"
       stroke-miterlimit="10"
       width="612"
       height="612"
       id="rect4533"
       style="display:inline;fill:none;stroke:#000000;stroke-width:0.5;stroke-miterlimit:10" /><rect
       x="104.652"
       y="894.78003"
       display="inline"
       stroke-miterlimit="10"
       width="403.92001"
       height="403.92001"
       id="rect4535"
       style="display:inline;fill:none;stroke:#000000;stroke-width:0.5;stroke-miterlimit:10" /><rect
       x="726.44397"
       y="790.73999"
       display="inline"
       stroke-miterlimit="10"
       width="612"
       height="612"
       id="rect4537"
       style="display:inline;fill:none;stroke:#000000;stroke-width:0.5;stroke-miterlimit:10" /><rect
       x="830.48401"
       y="894.78003"
       display="inline"
       stroke-miterlimit="10"
       width="403.92001"
       height="403.92001"
       id="rect4539"
       style="display:inline;fill:none;stroke:#000000;stroke-width:0.5;stroke-miterlimit:10" /><rect
       x="-2747.2681"
       y="1490.868"
       display="inline"
       stroke-miterlimit="10"
       width="612"
       height="612"
       id="rect4541"
       style="display:inline;fill:none;stroke:#000000;stroke-width:0.5;stroke-miterlimit:10" /><rect
       x="-2643.228"
       y="1594.908"
       display="inline"
       stroke-miterlimit="10"
       width="403.92001"
       height="403.92001"
       id="rect4543"
       style="display:inline;fill:none;stroke:#000000;stroke-width:0.5;stroke-miterlimit:10" /><rect
       x="-3441.2759"
       y="1492.092"
       display="inline"
       stroke-miterlimit="10"
       width="612"
       height="612"
       id="rect4545"
       style="display:inline;fill:none;stroke:#000000;stroke-width:0.5;stroke-miterlimit:10" /><rect
       x="-3337.2361"
       y="1596.132"
       display="inline"
       stroke-miterlimit="10"
       width="403.92001"
       height="403.92001"
       id="rect4547"
       style="display:inline;fill:none;stroke:#000000;stroke-width:0.5;stroke-miterlimit:10" /><rect
       x="-3441.2759"
       y="2186.1001"
       display="inline"
       stroke-miterlimit="10"
       width="612"
       height="612"
       id="rect4549"
       style="display:inline;fill:none;stroke:#000000;stroke-width:0.5;stroke-miterlimit:10" /><rect
       x="-3337.2361"
       y="2290.1399"
       display="inline"
       stroke-miterlimit="10"
       width="403.92001"
       height="403.92099"
       id="rect4551"
       style="display:inline;fill:none;stroke:#000000;stroke-width:0.5;stroke-miterlimit:10" /><rect
       x="-3441.2759"
       y="2888.676"
       display="inline"
       stroke-miterlimit="10"
       width="612"
       height="612"
       id="rect4553"
       style="display:inline;fill:none;stroke:#000000;stroke-width:0.5;stroke-miterlimit:10" /><rect
       x="-3337.2361"
       y="2992.7161"
       display="inline"
       stroke-miterlimit="10"
       width="403.92001"
       height="403.92001"
       id="rect4555"
       style="display:inline;fill:none;stroke:#000000;stroke-width:0.5;stroke-miterlimit:10" /><rect
       x="-2747.2681"
       y="2186.1001"
       display="inline"
       stroke-miterlimit="10"
       width="612"
       height="612"
       id="rect4557"
       style="display:inline;fill:none;stroke:#000000;stroke-width:0.5;stroke-miterlimit:10" /><rect
       x="-2643.228"
       y="2290.1399"
       display="inline"
       stroke-miterlimit="10"
       width="403.92001"
       height="403.92099"
       id="rect4559"
       style="display:inline;fill:none;stroke:#000000;stroke-width:0.5;stroke-miterlimit:10" /><rect
       x="-2747.2681"
       y="2888.676"
       display="inline"
       stroke-miterlimit="10"
       width="612"
       height="612"
       id="rect4561"
       style="display:inline;fill:none;stroke:#000000;stroke-width:0.5;stroke-miterlimit:10" /><rect
       x="-2643.228"
       y="2992.7161"
       display="inline"
       stroke-miterlimit="10"
       width="403.92001"
       height="403.92001"
       id="rect4563"
       style="display:inline;fill:none;stroke:#000000;stroke-width:0.5;stroke-miterlimit:10" /><rect
       x="-2044.692"
       y="2186.1001"
       display="inline"
       stroke-miterlimit="10"
       width="612"
       height="612"
       id="rect4565"
       style="display:inline;fill:none;stroke:#000000;stroke-width:0.5;stroke-miterlimit:10" /><rect
       x="-1940.652"
       y="2290.1399"
       display="inline"
       stroke-miterlimit="10"
       width="403.92001"
       height="403.92099"
       id="rect4567"
       style="display:inline;fill:none;stroke:#000000;stroke-width:0.5;stroke-miterlimit:10" /><rect
       x="-2044.692"
       y="2888.676"
       display="inline"
       stroke-miterlimit="10"
       width="612"
       height="612"
       id="rect4569"
       style="display:inline;fill:none;stroke:#000000;stroke-width:0.5;stroke-miterlimit:10" /><rect
       x="-1940.652"
       y="2992.7161"
       display="inline"
       stroke-miterlimit="10"
       width="403.92001"
       height="403.92001"
       id="rect4571"
       style="display:inline;fill:none;stroke:#000000;stroke-width:0.5;stroke-miterlimit:10" /><rect
       x="-1364.1479"
       y="2186.1001"
       display="inline"
       stroke-miterlimit="10"
       width="612"
       height="612"
       id="rect4573"
       style="display:inline;fill:none;stroke:#000000;stroke-width:0.5;stroke-miterlimit:10" /><rect
       x="-1260.108"
       y="2290.1399"
       display="inline"
       stroke-miterlimit="10"
       width="403.92001"
       height="403.92099"
       id="rect4575"
       style="display:inline;fill:none;stroke:#000000;stroke-width:0.5;stroke-miterlimit:10" /><rect
       x="-1364.1479"
       y="2888.676"
       display="inline"
       stroke-miterlimit="10"
       width="612"
       height="612"
       id="rect4577"
       style="display:inline;fill:none;stroke:#000000;stroke-width:0.5;stroke-miterlimit:10" /><rect
       x="-1260.108"
       y="2992.7161"
       display="inline"
       stroke-miterlimit="10"
       width="403.92001"
       height="403.92001"
       id="rect4579"
       style="display:inline;fill:none;stroke:#000000;stroke-width:0.5;stroke-miterlimit:10" /><rect
       x="-676.26001"
       y="2186.1001"
       display="inline"
       stroke-miterlimit="10"
       width="612"
       height="612"
       id="rect4581"
       style="display:inline;fill:none;stroke:#000000;stroke-width:0.5;stroke-miterlimit:10" /><rect
       x="-572.21997"
       y="2290.1399"
       display="inline"
       stroke-miterlimit="10"
       width="403.92001"
       height="403.92099"
       id="rect4583"
       style="display:inline;fill:none;stroke:#000000;stroke-width:0.5;stroke-miterlimit:10" /><rect
       x="-676.26001"
       y="2888.676"
       display="inline"
       stroke-miterlimit="10"
       width="612"
       height="612"
       id="rect4585"
       style="display:inline;fill:none;stroke:#000000;stroke-width:0.5;stroke-miterlimit:10" /><rect
       x="-572.21997"
       y="2992.7161"
       display="inline"
       stroke-miterlimit="10"
       width="403.92001"
       height="403.92001"
       id="rect4587"
       style="display:inline;fill:none;stroke:#000000;stroke-width:0.5;stroke-miterlimit:10" /><rect
       x="0.61199999"
       y="2186.1001"
       display="inline"
       stroke-miterlimit="10"
       width="612"
       height="612"
       id="rect4589"
       style="display:inline;fill:none;stroke:#000000;stroke-width:0.5;stroke-miterlimit:10" /><rect
       x="104.652"
       y="2290.1399"
       display="inline"
       stroke-miterlimit="10"
       width="403.92001"
       height="403.92099"
       id="rect4591"
       style="display:inline;fill:none;stroke:#000000;stroke-width:0.5;stroke-miterlimit:10" /><rect
       x="0.61199999"
       y="2888.676"
       display="inline"
       stroke-miterlimit="10"
       width="612"
       height="612"
       id="rect4593"
       style="display:inline;fill:none;stroke:#000000;stroke-width:0.5;stroke-miterlimit:10" /><rect
       x="104.652"
       y="2992.7161"
       display="inline"
       stroke-miterlimit="10"
       width="403.92001"
       height="403.92001"
       id="rect4595"
       style="display:inline;fill:none;stroke:#000000;stroke-width:0.5;stroke-miterlimit:10" /><rect
       x="726.44397"
       y="2186.1001"
       display="inline"
       stroke-miterlimit="10"
       width="612"
       height="612"
       id="rect4597"
       style="display:inline;fill:none;stroke:#000000;stroke-width:0.5;stroke-miterlimit:10" /><rect
       x="830.48401"
       y="2290.1399"
       display="inline"
       stroke-miterlimit="10"
       width="403.92001"
       height="403.92099"
       id="rect4599"
       style="display:inline;fill:none;stroke:#000000;stroke-width:0.5;stroke-miterlimit:10" /><rect
       x="726.44397"
       y="2888.676"
       display="inline"
       stroke-miterlimit="10"
       width="612"
       height="612"
       id="rect4601"
       style="display:inline;fill:none;stroke:#000000;stroke-width:0.5;stroke-miterlimit:10" /><rect
       x="830.48401"
       y="2992.7161"
       display="inline"
       stroke-miterlimit="10"
       width="403.92001"
       height="403.92001"
       id="rect4603"
       style="display:inline;fill:none;stroke:#000000;stroke-width:0.5;stroke-miterlimit:10" /><rect
       x="-2045.916"
       y="1492.092"
       display="inline"
       stroke-miterlimit="10"
       width="612"
       height="612"
       id="rect4605"
       style="display:inline;fill:none;stroke:#000000;stroke-width:0.5;stroke-miterlimit:10" /><rect
       x="-1941.876"
       y="1596.132"
       display="inline"
       stroke-miterlimit="10"
       width="403.92001"
       height="403.92001"
       id="rect4607"
       style="display:inline;fill:none;stroke:#000000;stroke-width:0.5;stroke-miterlimit:10" /><rect
       x="-1362.924"
       y="1492.092"
       display="inline"
       stroke-miterlimit="10"
       width="612"
       height="612"
       id="rect4609"
       style="display:inline;fill:none;stroke:#000000;stroke-width:0.5;stroke-miterlimit:10" /><rect
       x="-1258.884"
       y="1596.132"
       display="inline"
       stroke-miterlimit="10"
       width="403.92001"
       height="403.92001"
       id="rect4611"
       style="display:inline;fill:none;stroke:#000000;stroke-width:0.5;stroke-miterlimit:10" /><rect
       x="-676.26001"
       y="1492.092"
       display="inline"
       stroke-miterlimit="10"
       width="612"
       height="612"
       id="rect4613"
       style="display:inline;fill:none;stroke:#000000;stroke-width:0.5;stroke-miterlimit:10" /><rect
       x="-572.21997"
       y="1596.132"
       display="inline"
       stroke-miterlimit="10"
       width="403.92001"
       height="403.92001"
       id="rect4615"
       style="display:inline;fill:none;stroke:#000000;stroke-width:0.5;stroke-miterlimit:10" /><rect
       x="-0.61199999"
       y="1492.092"
       display="inline"
       stroke-miterlimit="10"
       width="612"
       height="612"
       id="rect4617"
       style="display:inline;fill:none;stroke:#000000;stroke-width:0.5;stroke-miterlimit:10" /><rect
       x="103.428"
       y="1596.132"
       display="inline"
       stroke-miterlimit="10"
       width="403.91901"
       height="403.92001"
       id="rect4619"
       style="display:inline;fill:none;stroke:#000000;stroke-width:0.5;stroke-miterlimit:10" /><rect
       x="725.21997"
       y="1492.092"
       display="inline"
       stroke-miterlimit="10"
       width="612"
       height="612"
       id="rect4621"
       style="display:inline;fill:none;stroke:#000000;stroke-width:0.5;stroke-miterlimit:10" /><rect
       x="829.26001"
       y="1596.132"
       display="inline"
       stroke-miterlimit="10"
       width="403.92001"
       height="403.92001"
       id="rect4623"
       style="display:inline;fill:none;stroke:#000000;stroke-width:0.5;stroke-miterlimit:10" /></g><g
     id="g4638"
     transform="translate(-107.715,-213.625)"><path
       d="m 182.376,413.136 c -4.039,0 -7.344,3.305 -7.344,7.345 0,4.039 3.305,7.344 7.344,7.344 h 30.355 c 4.039,0 7.344,-3.305 7.344,-7.344 0,-4.04 -3.305,-7.345 -7.344,-7.345 z"
       id="path4626"
       inkscape:connector-curvature="0"
       style="fill:#56b69c" /><path
       d="m 465.242,403.344 c 4.039,0 7.344,-3.305 7.344,-7.344 0,-33.17 -8.935,-64.26 -24.357,-91.065 -0.122,-0.245 -0.244,-0.49 -0.367,-0.734 -0.122,-0.245 -0.244,-0.49 -0.489,-0.734 -15.79,-26.806 -38.312,-49.205 -65.117,-64.995 -0.244,-0.123 -0.489,-0.367 -0.734,-0.49 -0.244,-0.122 -0.489,-0.245 -0.611,-0.367 -26.806,-15.178 -57.773,-23.99 -90.821,-23.99 -31.702,0 -61.567,8.078 -87.516,22.399 -0.245,0.122 -0.489,0.245 -0.612,0.367 -0.245,0.122 -0.49,0.245 -0.734,0.489 -27.173,15.178 -50.062,37.21 -66.463,63.648 -0.122,0.245 -0.367,0.49 -0.489,0.734 -0.123,0.245 -0.245,0.49 -0.367,0.735 -16.646,27.417 -26.194,59.608 -26.194,94.003 0,39.902 12.607,77.724 36.598,109.548 14.565,19.339 33.048,35.741 53.856,47.981 0.123,0.122 0.367,0.244 0.49,0.367 0.122,0.122 0.245,0.122 0.489,0.244 11.873,6.854 24.603,12.485 37.699,16.401 0.735,0.245 1.469,0.367 2.204,0.367 3.182,0 5.998,-2.08 6.977,-5.263 1.224,-3.917 -0.979,-7.956 -4.896,-9.18 -9.915,-3.061 -19.461,-6.978 -28.642,-11.751 l 11.383,-19.706 c 2.081,-3.55 0.857,-7.956 -2.693,-10.037 -3.55,-2.081 -7.956,-0.856 -10.037,2.693 L 199.76,537.37 c -16.769,-10.771 -31.824,-24.48 -43.819,-40.515 -2.448,-3.305 -4.773,-6.731 -6.977,-10.159 L 168.67,475.19 c 3.55,-2.08 4.651,-6.486 2.693,-10.036 -2.081,-3.55 -6.487,-4.651 -10.037,-2.693 l -19.829,11.506 C 129.01,450.101 122.4,423.54 122.4,396 c 0,-29.253 7.589,-56.916 20.808,-80.906 l 19.461,11.873 c 1.224,0.734 2.571,1.102 3.794,1.102 2.448,0 4.896,-1.224 6.243,-3.549 2.081,-3.427 0.979,-7.956 -2.448,-10.037 L 150.797,302.61 c 13.464,-20.074 31.212,-37.087 51.775,-49.694 l 11.016,19.951 c 1.347,2.448 3.794,3.794 6.487,3.794 1.224,0 2.448,-0.245 3.55,-0.857 3.549,-1.958 4.896,-6.487 2.938,-10.037 l -11.016,-19.951 c 20.441,-10.159 43.207,-16.279 67.198,-17.381 v 22.889 c 0,4.039 3.305,7.344 7.344,7.344 4.039,0 7.344,-3.305 7.344,-7.344 v -22.889 c 25.214,1.102 49.083,7.833 70.257,18.85 l -11.383,19.706 c -2.081,3.55 -0.857,7.956 2.692,10.037 1.102,0.612 2.448,0.979 3.672,0.979 2.57,0 5.019,-1.346 6.365,-3.672 l 11.383,-19.707 c 20.318,13.097 37.699,30.355 50.796,50.674 l -19.706,11.505 c -3.55,2.081 -4.651,6.487 -2.692,10.037 1.346,2.326 3.794,3.672 6.364,3.672 1.225,0 2.57,-0.367 3.672,-0.979 l 19.707,-11.505 c 11.138,21.297 17.992,45.166 19.094,70.502 h -22.889 c -4.039,0 -7.344,3.305 -7.344,7.344 0,4.04 3.305,7.344 7.344,7.344 z"
       id="path4628"
       inkscape:connector-curvature="0"
       style="fill:#56b69c" /><path
       d="m 286.293,402.365 c 0.245,0.122 0.367,0.244 0.612,0.367 0.122,0 0.245,0.122 0.367,0.122 0.122,0.122 0.367,0.122 0.489,0.245 0.123,0 0.245,0.122 0.367,0.122 0.123,0 0.367,0.122 0.49,0.122 0.123,0 0.245,0 0.367,0.123 0.245,0 0.49,0 0.857,0 h 0.123 v 0 0 h 0.122 c 0.245,0 0.49,0 0.734,0 0.123,0 0.245,0 0.367,-0.123 0.123,0 0.367,0 0.49,-0.122 0.123,0 0.245,-0.122 0.367,-0.122 0.122,0 0.367,-0.123 0.49,-0.123 0.122,0 0.245,-0.122 0.367,-0.122 0.122,-0.122 0.367,-0.122 0.489,-0.245 0,0 0.123,0 0.123,-0.122 l 105.019,-64.138 c 3.428,-2.081 4.529,-6.61 2.448,-10.037 -2.081,-3.427 -6.609,-4.528 -10.037,-2.448 L 290.21,387.432 222.89,344.347 c -3.427,-2.203 -7.956,-1.224 -10.159,2.203 -2.204,3.427 -1.224,7.956 2.203,10.159 l 71.359,45.656 c -0.122,-0.123 0,-0.123 0,0 z"
       id="path4630"
       inkscape:connector-curvature="0"
       style="fill:#56b69c" /><path
       d="m 329.868,485.107 c 1.102,-2.448 1.836,-4.773 2.203,-7.222 0.489,-2.448 0.734,-4.896 0.856,-7.589 0.123,-2.57 0.245,-5.875 0.245,-9.792 0,-5.386 -0.612,-10.526 -1.958,-15.3 -1.225,-4.773 -3.306,-9.058 -6.12,-12.853 -2.815,-3.794 -6.365,-6.731 -10.649,-8.935 -4.284,-2.204 -9.424,-3.306 -15.422,-3.306 -4.774,0 -9.303,0.979 -13.587,2.815 -4.161,1.836 -7.833,4.406 -10.894,7.589 -3.06,3.183 -5.508,6.854 -7.344,11.017 -1.836,4.161 -2.693,8.69 -2.693,13.586 v 12.607 h 23.134 V 454.63 c 0,-3.795 0.979,-6.61 3.06,-8.568 2.081,-1.958 4.773,-2.938 8.201,-2.938 2.815,0 5.018,0.612 6.487,1.714 1.468,1.102 2.57,2.57 3.304,4.161 0.734,1.714 1.102,3.55 1.225,5.753 0.122,2.203 0.244,4.284 0.244,6.242 0,4.406 -0.122,7.956 -0.489,10.894 -0.245,2.938 -1.469,6.365 -3.55,10.282 l -41.493,78.213 v 21.665 h 68.544 v -23.011 h -41.494 l 33.905,-65.117 c 1.715,-3.427 3.184,-6.365 4.285,-8.813 z"
       id="path4632"
       inkscape:connector-curvature="0"
       style="fill:#56b69c" /><polygon
       points="365.976,536.516 400.37,421.459 376.013,421.459 342.965,536.516 342.965,558.18 388.742,558.18 388.742,582.17 411.754,582.17 411.754,558.18 422.77,558.18 422.77,536.516 411.754,536.516 411.754,490.737 388.742,490.737 388.742,536.516 "
       id="polygon4634"
       style="fill:#56b69c" /><path
       d="m 500.983,481.436 c -1.347,-3.55 -3.183,-6.487 -5.386,-8.69 -2.203,-2.203 -4.773,-3.917 -7.711,-4.896 -2.815,-0.979 -5.753,-1.469 -8.568,-1.469 -5.263,0 -9.547,1.224 -12.975,3.55 -3.427,2.325 -6.242,5.263 -8.69,8.936 h -0.489 V 421.584 H 434.152 V 582.17 h 23.012 v -76.867 c 0,-5.141 0.856,-9.058 2.448,-11.75 1.713,-2.692 4.651,-4.039 9.058,-4.039 3.549,0 6.364,1.224 8.323,3.55 1.958,2.447 2.938,5.753 2.938,9.914 v 79.192 h 23.134 v -87.761 c -10e-4,-5.14 -0.735,-9.425 -2.082,-12.973 z"
       id="path4636"
       inkscape:connector-curvature="0"
       style="fill:#56b69c" /></g></svg>