<svg xmlns="http://www.w3.org/2000/svg" width="24" height="24"><path fill="#524b48" fill-rule="evenodd" d="M24 22.7c0-.4-.1-.7-.4-1L16.8 15c.8-1 1.4-2.2 1.6-3.5A9 9 0 0 0 16 2.7 9 9 0 0 0 9.3 0a9 9 0 0 0-6.6 2.7A9 9 0 0 0 0 9.3 9 9 0 0 0 2.7 16a9 9 0 0 0 6.6 2.8 9 9 0 0 0 5.6-1.9l6.8 6.8c.3.3.6.4 1 .4.3 0 .6-.1.9-.4.3-.3.4-.6.4-1M15.8 11a6.3 6.3 0 0 1-1.8 3 6.4 6.4 0 0 1-4.7 2c-1.8 0-3.4-.7-4.7-2a6.4 6.4 0 0 1-2-4.7c0-1.8.7-3.4 2-4.7a6.5 6.5 0 0 1 9.4 0c1.3 1.3 2 2.9 2 4.7 0 .6 0 1-.2 1.6z"/></svg>