<?xml version="1.0" encoding="utf-8"?>
<!-- Generator: Adobe Illustrator 22.1.0, SVG Export Plug-In . SVG Version: 6.00 Build 0)  -->
<svg version="1.1" id="Calque_1" xmlns="http://www.w3.org/2000/svg" xmlns:xlink="http://www.w3.org/1999/xlink" x="0px" y="0px"
	 viewBox="0 0 117.3 114.3" style="enable-background:new 0 0 117.3 114.3;" xml:space="preserve">
<style type="text/css">
	.st0{fill-rule:evenodd;clip-rule:evenodd;fill:#121212;}
	.st1{fill:#121212;}
</style>
<g>
	<path d="M68.8,60.7c-5.1,7.5-0.8,17.4,4.5,22.5c4.8,4.6,8.7,5.7,9.2,5.8l2.5-4.7l7.1,19.4l-20,4.1l2.7-4.9l-2.7-1.5
		c-8.4-5.5-10.2-13-10.8-15.3C60.1,82,58.6,69.9,68.8,60.7"/>
	<path d="M68.7,61.1c3.6,8.3,14.3,10,21.4,8.2c6.3-1.6,9.2-4.2,9.7-4.6l0,0l-2.7-4.6l20.2,4.4L110,83.4l-2.7-4.8l-2.6,1.4
		c-9.2,4.2-16.4,1.7-18.7,1C82,79.7,71,74.6,68.7,61.1"/>
	<path d="M104.3,40.9c-1.4,10-7.4,14.8-9.3,16.3C91.8,59.8,81.6,66.3,69,61c9,1.4,16.1-6.7,18.4-13.6c2.1-6.2,1.5-10.1,1.3-10.7
		l-0.1,0l-5.4-0.2l14.6-14.6l12.2,16.4l-5.5-0.3L104.3,40.9z"/>
	<path class="st0" d="M43.2,32.5c-4.6,0-8.3-3.7-8.3-8.3c0-4.6,3.7-8.3,8.3-8.3c4.6,0,8.3,3.7,8.3,8.3
		C51.5,28.8,47.8,32.5,43.2,32.5"/>
	<path class="st1" d="M54.6,0C24.5,0,0,24.5,0,54.6c0,30.1,24.5,54.6,54.6,54.6c1.6,0,3.2-0.1,4.8-0.2l0.4,5.5l10-9.7l-11.2-8.5
		l0.4,5.8c-1.4,0.1-2.9,0.2-4.4,0.2c-2.3,0-4.6-0.2-6.8-0.5l-0.2-1.5L42.3,56c-0.7-8.3,4.1-9.7,7-8.4l16.5,6.6
		c1.9,0.8,2.8-0.8,2.8-0.8s1.1-1.7-0.8-2.9c0,0-22.6-14.9-27.4-15.8c-6.6-1.2-13,4.1-14.5,11L18,85C11.1,76.7,7,66.1,7,54.6
		C7,28.3,28.3,7,54.6,7c14,0,26.6,6.1,35.4,15.8l4.9-5C84.8,6.9,70.5,0,54.6,0 M30.3,73c0.7-2,1.8-1.8,1.8-1.8s1-0.2,1.5,1.8
		l7.8,27.3c-6.5-1.9-12.4-5.1-17.5-9.4L30.3,73z"/>
</g>
</svg>
