<?xml version="1.0" encoding="UTF-8" standalone="no"?>
<!-- Generator: Adobe Illustrator 16.0.0, SVG Export Plug-In . SVG Version: 6.00 Build 0)  -->

<svg
   xmlns:dc="http://purl.org/dc/elements/1.1/"
   xmlns:cc="http://creativecommons.org/ns#"
   xmlns:rdf="http://www.w3.org/1999/02/22-rdf-syntax-ns#"
   xmlns:svg="http://www.w3.org/2000/svg"
   xmlns="http://www.w3.org/2000/svg"
   xmlns:xlink="http://www.w3.org/1999/xlink"
   xmlns:sodipodi="http://sodipodi.sourceforge.net/DTD/sodipodi-0.dtd"
   xmlns:inkscape="http://www.inkscape.org/namespaces/inkscape"
   version="1.1"
   id="Calque_1"
   inkscape:version="0.92.1 r15371"
   sodipodi:docname="tips.svg"
   x="0px"
   y="0px"
   width="298px"
   height="298px"
   viewBox="0 0 298 298"
   enable-background="new 0 0 298 298"
   xml:space="preserve"><metadata
     id="metadata6807"><rdf:RDF><cc:Work
         rdf:about=""><dc:format>image/svg+xml</dc:format><dc:type
           rdf:resource="http://purl.org/dc/dcmitype/StillImage" /></cc:Work></rdf:RDF></metadata><defs
     id="defs6805" /><sodipodi:namedview
     objecttolerance="10"
     id="namedview5091"
     pagecolor="#ffffff"
     bordercolor="#ffffff"
     inkscape:cy="149"
     inkscape:cx="-56.190678"
     inkscape:zoom="0.79194631"
     guidetolerance="10"
     showgrid="false"
     gridtolerance="10"
     borderopacity="1"
     inkscape:current-layer="g6792"
     inkscape:window-maximized="0"
     inkscape:window-y="0"
     inkscape:window-x="0"
     inkscape:pageopacity="0"
     inkscape:window-width="1301"
     inkscape:window-height="755"
     inkscape:pageshadow="2" /><g
     id="g5088"><g
       id="g6792"><defs
         id="defs6786"><rect
           id="SVGID_1_"
           width="298"
           height="298" /></defs><clipPath
         id="SVGID_2_"><use
           xlink:href="#SVGID_1_"
           overflow="visible"
           id="use6788" /></clipPath><circle
         id="circle5084"
         clip-path="url(#SVGID_2_)"
         fill="none"
         stroke="#FFFFFF"
         stroke-width="12"
         stroke-linecap="round"
         stroke-linejoin="round"
         stroke-miterlimit="10"
         cx="149"
         cy="149"
         r="143" /></g><g
       id="g6801"><defs
         id="defs6795"><rect
           id="SVGID_3_"
           width="298"
           height="298" /></defs><clipPath
         id="SVGID_4_"><use
           xlink:href="#SVGID_3_"
           overflow="visible"
           id="use6797" /></clipPath><path
         id="path5086"
         clip-path="url(#SVGID_4_)"
         fill="#FFFFFF"
         d="M125.9,192.172c0.092-12.986,2.018-22.494,5.775-28.523    c3.757-6.029,11.247-13.358,22.472-21.984c6.586-5.379,11.85-11.178,15.793-17.393c3.941-6.213,5.914-13.17,5.914-20.872    c0-8.533-2.25-15.211-6.75-20.036c-4.5-4.822-10.922-7.235-19.271-7.235c-6.866,0-12.686,2.041-17.462,6.122    c-4.779,4.083-7.214,10.066-7.306,17.949H85.549l-0.278-0.835c-0.279-17.81,5.587-31.446,17.601-40.908    c12.013-9.461,27.666-14.192,46.961-14.192c20.778,0,37.081,5.265,48.908,15.793c11.827,10.529,17.741,24.837,17.741,42.925    c0,11.782-3.457,22.68-10.366,32.699c-6.911,10.018-15.563,18.414-25.95,25.184c-5.659,4.361-9.37,8.744-11.132,13.148    c-1.763,4.406-2.644,10.459-2.644,18.158H125.9z M166.669,249.775h-40.907v-34.784h40.907V249.775z" /></g></g></svg>