<?xml version="1.0" encoding="utf-8"?>
<!-- Generator: Adobe Illustrator 22.1.0, SVG Export Plug-In . SVG Version: 6.00 Build 0)  -->
<svg version="1.1" id="pictos" xmlns="http://www.w3.org/2000/svg" xmlns:xlink="http://www.w3.org/1999/xlink" x="0px" y="0px"
	 viewBox="0 0 500 500" style="enable-background:new 0 0 500 500;" xml:space="preserve">
<style type="text/css">
	.st0{fill:#24896E;}
</style>
<g>
	<path class="st0" d="M422,290.1v127.2h-73.7V298.6c0-29.8-10.6-50.1-37.3-50.1c-20.4,0-32.5,13.7-37.8,27c-1.9,4.7-2.4,11.3-2.4,18
		v123.8h-73.7c0,0,1-200.9,0-221.7h73.7V227c-0.1,0.3-0.4,0.5-0.5,0.7h0.5V227c9.8-15.1,27.3-36.6,66.4-36.6
		C385.6,190.3,422,222,422,290.1L422,290.1z M119.8,88.6c-25.2,0-41.7,16.6-41.7,38.3c0,21.3,16,38.3,40.8,38.3h0.5
		c25.7,0,41.7-17,41.7-38.3C160.5,105.2,145,88.6,119.8,88.6L119.8,88.6z M82.5,417.3h73.7V195.5H82.5V417.3z"/>
</g>
</svg>
