<?xml version="1.0" encoding="utf-8"?>
<!-- Generator: Adobe Illustrator 21.1.0, SVG Export Plug-In . SVG Version: 6.00 Build 0)  -->
<svg version="1.1" id="Layer_1" xmlns="http://www.w3.org/2000/svg" xmlns:xlink="http://www.w3.org/1999/xlink" x="0px" y="0px"
	 viewBox="0 0 19.5 12.5" style="enable-background:new 0 0 19.5 12.5;" xml:space="preserve">
<style type="text/css">
	.st0{fill:#2C886E;}
</style>
<path class="st0" d="M9.8,10.8c-0.1,0-0.3-0.1-0.4-0.2L2.1,3.3C2,3.2,2,3.1,2,3S2,2.7,2.1,2.6l0.8-0.8C3,1.7,3.1,1.7,3.3,1.7
	c0.1,0,0.3,0.1,0.4,0.2L9.8,8l6.1-6.1c0.1-0.1,0.2-0.2,0.4-0.2s0.3,0.1,0.4,0.2l0.8,0.8c0.1,0.1,0.2,0.2,0.2,0.4s-0.1,0.3-0.2,0.4
	l-7.3,7.3C10,10.7,9.9,10.8,9.8,10.8z"/>
</svg>
