<?xml version="1.0" encoding="utf-8"?>
<!-- Generator: Adobe Illustrator 22.1.0, SVG Export Plug-In . SVG Version: 6.00 Build 0)  -->
<svg version="1.1" id="Calque_1" xmlns="http://www.w3.org/2000/svg" xmlns:xlink="http://www.w3.org/1999/xlink" x="0px" y="0px"
	 viewBox="0 0 500 500"  xml:space="preserve">


<g id="pictos">
	<g>
		<path d="M182.4,359.8c6,0,10.8,4.9,10.8,11s-4.8,11-10.8,11s-10.8-4.9-10.8-11C171.6,364.7,176.5,359.8,182.4,359.8 M182.4,410.9
			c21.9,0,39.7-18.1,39.7-40.3c0-22.3-17.8-40.3-39.7-40.3s-39.7,18.1-39.7,40.3C142.8,392.8,160.5,410.9,182.4,410.9"/>
		<path d="M308.6,370.7c0-6.1,4.8-11,10.8-11s10.8,4.9,10.8,11s-4.8,11-10.8,11C313.5,381.7,308.6,376.7,308.6,370.7 M358.8,370.7
			c0-22.3-17.8-40.3-39.7-40.3c-21.9,0-39.7,18.1-39.7,40.3c0,22.3,17.8,40.3,39.7,40.3C341.1,411,358.8,392.9,358.8,370.7"/>
		<path d="M355.8,217.7c-2.1,9.1-9.7,15.8-18.8,16.8l-141.5,14.7l-28.5-88l201.3,3.3L355.8,217.7z M386.8,135.3l-229.4-3.7
			l-5.6-17.3c-4.9-15-18.7-25.2-34.2-25.2H90.4c-8,0-14.4,6.6-14.4,14.7s6.5,14.7,14.4,14.7h27.1c3.1,0,5.9,2,6.8,5L170,264.2
			l-16.7,41.2c-3,7.5,0.5,16.1,7.9,19.1c1.7,0.7,3.6,1.1,5.5,1.1h177.8c8,0,14.4-6.6,14.4-14.7s-6.5-14.7-14.4-14.7H188l7.2-17.6
			l144.7-15.1c21.4-2.2,39-18,43.9-39.2l16.8-71c1.9-7.9-2.9-15.8-10.7-17.7C388.9,135.3,387.8,135.2,386.8,135.3L386.8,135.3
			L386.8,135.3z"/>
	</g>
</g>
</svg>
