<svg xmlns="http://www.w3.org/2000/svg" width="475.044" height="475.044" viewBox="0 0 475.044 475.044"><path d="M474.487 183.276c-1.711-5.236-6.852-8.52-15.41-9.851l-143.323-20.839L251.52 22.681c-4-7.804-8.661-11.704-13.989-11.704-5.519 0-10.183 3.9-13.988 11.704l-64.241 129.905-143.324 20.839c-8.564 1.332-13.704 4.615-15.415 9.851-1.709 5.236.478 10.898 6.567 16.989l103.924 101.068-24.553 142.749c-.95 6.286-.381 11.173 1.715 14.702 2.092 3.524 5.33 5.283 9.707 5.283 3.237 0 7.043-1.14 11.42-3.433l128.194-67.382 128.19 67.382c4.377 2.286 8.186 3.433 11.423 3.433 4.381 0 7.622-1.759 9.709-5.283 2.088-3.529 2.659-8.416 1.708-14.702l-24.551-142.749 103.63-101.068c6.284-6.091 8.566-11.753 6.841-16.989zm-135.89 91.789l-13.99 13.421 3.43 18.843 17.128 101.357-90.786-47.965-16.848-8.856V76.927l45.395 91.933 8.559 17.128 18.85 2.856 101.642 14.844-73.38 71.377z"/></svg>