<?xml version="1.0" encoding="utf-8"?>
<!-- Generator: Adobe Illustrator 21.1.0, SVG Export Plug-In . SVG Version: 6.00 Build 0)  -->
<svg version="1.1" id="Capa_1" xmlns="http://www.w3.org/2000/svg" xmlns:xlink="http://www.w3.org/1999/xlink" x="0px" y="0px"
	 viewBox="0 0 263.2 316.8" style="enable-background:new 0 0 263.2 316.8;" xml:space="preserve">
<style type="text/css">
	.st0{fill:#24896E;}
</style>
<g>
	<path class="st0" d="M186.5,185.9l-0.8-0.4c-1.9-0.9-3.9-1.7-5.9-2.5c-2.2-0.9-4.4-1.7-6.6-2.4c-1.8-0.6-3.5-1.1-5.3-1.6
		c-2.7-0.8-5.5-1.5-8.3-2.1c-1-0.2-1.9-0.4-2.9-0.6l-0.7-0.1c-1.7-0.3-3.4-0.6-5.1-0.9l-0.5-0.1c0,0,0,0-0.1,0l-0.5-0.1
		c-1.4-0.2-2.8-0.4-4.3-0.6l-5-0.4c-6.1-0.4-12.4-0.4-18.5,0.1l-1.8,0.1l-0.8,0.1l-2.1,0.2c-1.9,0.2-3.8,0.5-5.7,0.8l-0.6,0.1
		c-1.3,0.2-2.6,0.4-3.8,0.7c-1.4,0.3-2.8,0.5-4.2,0.8c-2.7,0.6-5.4,1.3-7.9,2c-2.1,0.6-4.1,1.2-6,1.9l-1.3,0.5
		c-4,1.4-8.1,3.1-12,4.9l-1,0.5l0,0C29.4,208.5,0,255,0,305.4c0,1.2,0.1,2.3,0.1,3.4l0.3,8h262.2l0.4-7.9c0.1-1.2,0.1-2.3,0.1-3.5
		C263.2,254.2,233.1,207.3,186.5,185.9z M12.9,304c0.6-45.3,27.3-86.8,68.1-105.9l1.3-0.5l0.2-0.1c3.2-1.5,6.5-2.8,9.8-4l1.1-0.4
		c1.8-0.6,3.6-1.2,5.5-1.7c2.3-0.7,4.7-1.3,7.1-1.8c1.2-0.3,2.5-0.5,3.8-0.8c1-0.2,2-0.4,3-0.5l0.5-0.1c1.8-0.3,3.7-0.6,5.5-0.8
		l4.2-0.4c5.5-0.4,10.8-0.5,17.1,0l4.1,0.3c1,0.1,2,0.3,3.2,0.4l1.5,0.2c1.5,0.2,3.1,0.5,4.6,0.8l0.7,0.1c0.9,0.2,1.7,0.3,2.5,0.5
		c2.5,0.6,5,1.2,7.5,1.9c1.6,0.5,3.3,1,4.8,1.5c2,0.7,4,1.4,5.9,2.2c1.9,0.7,3.7,1.5,5.6,2.4l0.3,0.1
		c41.7,19.1,68.8,60.8,69.3,106.5L12.9,304L12.9,304z M99.8,157.6c1,0.4,2,0.8,3,1.1l2.1,0.8c0.8,0.3,1.6,0.6,2.4,0.9
		c7.7,2.4,15.7,3.6,23.8,3.7l0.6,0c2.8,0,5.6-0.1,8.3-0.4c0.9-0.1,1.8-0.2,2.7-0.4l2-0.3c1.1-0.1,2.3-0.3,3.4-0.5
		c0.8-0.2,1.6-0.4,2.4-0.6l2.2-0.6c1.1-0.3,2.2-0.5,3.2-0.9c0.7-0.2,1.3-0.5,2-0.7l1.8-0.6c1.3-0.4,2.5-0.9,3.8-1.4
		c0.5-0.2,1-0.4,1.5-0.7l0.6-0.3c1.7-0.8,3.5-1.6,5.2-2.5l1.1-0.7c1.9-1.1,3.9-2.2,5.8-3.6c1-0.7,2-1.4,2.9-2.2l3.3-2.6
		c18.9-15.7,29.8-38.6,29.8-62.5l0-0.7c0-45.2-36.8-82-82-82C88.6,0,52.7,33.8,50,76.9l-0.1,1.1c-0.1,1.4-0.2,2.7-0.2,4.1
		C49.7,115.1,69.4,144.7,99.8,157.6z M62.7,78.8l0.1-1.2c2.3-36.3,32.5-64.8,68.9-64.8c38.1,0,69.2,31,69.2,68.6l0,0.7
		c0,20.6-9.2,40-25.2,53.3l-3.1,2.3c-0.7,0.6-1.4,1.1-2.2,1.7c-1.5,1-3.2,2-4.8,2.9l-0.9,0.6c-1.4,0.7-2.8,1.4-4.4,2.1l-1.7,0.8
		c-1,0.4-2,0.8-3,1.1l-2.1,0.8c-0.4,0.2-0.8,0.3-1.2,0.4c-0.8,0.2-1.6,0.4-2.4,0.6l-2.6,0.7c-0.6,0.1-1.1,0.3-1.6,0.4
		c-0.9,0.2-1.7,0.3-2.6,0.4l-2.4,0.4c-0.6,0.1-1.2,0.2-1.8,0.3c-2.1,0.2-4.3,0.3-6.5,0.4l-0.6,0h0c-7,0-13.9-1.1-20.6-3.1
		c-0.6-0.2-1.1-0.4-1.7-0.6l-2.4-0.9c-0.8-0.3-1.5-0.5-2.2-0.8C79.2,134.9,62.6,109.9,62.6,82C62.6,80.9,62.7,79.9,62.7,78.8z"/>
</g>
</svg>
