<?xml version="1.0" encoding="utf-8"?>
<!-- Generator: Adobe Illustrator 22.1.0, SVG Export Plug-In . SVG Version: 6.00 Build 0)  -->
<svg version="1.1" id="Calque_1" xmlns="http://www.w3.org/2000/svg" xmlns:xlink="http://www.w3.org/1999/xlink" x="0px" y="0px"
	 viewBox="0 0 60 60" style="enable-background:new 0 0 60 60;" xml:space="preserve">
<style type="text/css">
	.st0{fill:#318B73;}
</style>
<g>
	<path class="st0" d="M30.7,21.2c-9.9,0-17.7,7.5-19.4,9.4l0,0C11,30.8,10.9,31,10.9,31l0,0L9,29.3c0.1-0.1,8.8-10.6,21.6-10.7l0,0
		c6.4,0,13.6,2.8,21,10.6l0,0L49.9,31C42.8,23.5,36.3,21.2,30.7,21.2L30.7,21.2z M10.9,31L10.9,31L10.9,31L10.9,31L10.9,31L10.9,31z
		"/>
</g>
<g>
	<path class="st0" d="M30.7,41.7C17.9,41.5,9.1,31,9,31l0,0c-0.4-0.5-0.4-1.3,0.1-1.8l0,0c0.5-0.5,1.3-0.4,1.7,0.2l0,0
		c0,0,0.1,0.2,0.3,0.4l0,0c0.2,0.3,0.6,0.7,1.1,1.1l0,0c0.9,0.9,2.4,2.2,4.1,3.4l0,0c3.5,2.4,8.4,4.9,14.1,4.9l0,0
		c5.6,0,12.2-2.4,19.2-9.8l0,0c0.4-0.5,1.2-0.5,1.7-0.1l0,0c0.5,0.5,0.5,1.3,0,1.8l0,0C44.3,38.9,37,41.7,30.7,41.7L30.7,41.7
		L30.7,41.7L30.7,41.7z"/>
</g>
<g>
	<g>
		<ellipse class="st0" cx="30.9" cy="30" rx="7.7" ry="8.3"/>
		<path class="st0" d="M23,30c0-4.7,3.5-8.6,7.9-8.6l0,0c4.4,0,7.9,3.8,7.9,8.6l0,0c0,4.7-3.5,8.6-7.9,8.6l0,0
			C26.5,38.6,23,34.8,23,30L23,30z M23.4,30c0,4.5,3.3,8.1,7.5,8.1l0,0c4.1,0,7.5-3.6,7.5-8.1l0,0l0,0c0-4.5-3.3-8.1-7.5-8.1l0,0
			C26.8,21.9,23.4,25.5,23.4,30L23.4,30z"/>
	</g>
	<g>
		<path class="st0" d="M29.5,23.3c-3.9,1-5.1,5.7-4.4,6.7c0,0,1.6,1,1.5,0.5C26.7,30.5,26,25.4,29.5,23.3"/>
	</g>
</g>
</svg>
