<?xml version="1.0" encoding="utf-8"?>
<!-- Generator: Adobe Illustrator 21.1.0, SVG Export Plug-In . SVG Version: 6.00 Build 0)  -->
<svg version="1.1" id="Layer_1" xmlns="http://www.w3.org/2000/svg" xmlns:xlink="http://www.w3.org/1999/xlink" x="0px" y="0px"
	 viewBox="0 0 24 24" style="enable-background:new 0 0 24 24;" xml:space="preserve">
<style type="text/css">
	.st0{fill:#FFFFFF;}
</style>
<path class="st0" d="M24,22.7c0-0.4-0.1-0.7-0.4-1L16.8,15c0.8-1,1.4-2.2,1.6-3.5C19.3,8.3,18.3,5,16,2.7C14.2,0.9,11.8-0.1,9.3,0
	C6.8,0,4.4,0.9,2.7,2.7C0.9,4.4,0,6.8,0,9.3c-0.1,2.5,0.9,4.9,2.7,6.7c1.7,1.8,4.1,2.8,6.6,2.8c2,0,4-0.7,5.6-1.9l6.8,6.8
	c0.3,0.3,0.6,0.4,1,0.4c0.3,0,0.6-0.1,0.9-0.4S24,23.1,24,22.7 M15.8,11c-0.3,1.1-0.9,2.2-1.8,3c-1.2,1.3-2.9,2-4.7,2
	c-1.8,0-3.4-0.7-4.7-2c-1.3-1.2-2-2.9-2-4.7c0-1.8,0.7-3.4,2-4.7c2.5-2.6,6.6-2.7,9.2-0.2c0.1,0.1,0.1,0.1,0.2,0.2
	c1.3,1.3,2,2.9,2,4.7C16,9.9,16,10.3,15.8,11L15.8,11z"/>
</svg>
