<?xml version="1.0" encoding="utf-8"?>
<!-- Generator: Adobe Illustrator 22.1.0, SVG Export Plug-In . SVG Version: 6.00 Build 0)  -->
<svg version="1.1" id="pictos" xmlns="http://www.w3.org/2000/svg" xmlns:xlink="http://www.w3.org/1999/xlink" x="0px" y="0px"
	 viewBox="0 0 500 500" style="enable-background:new 0 0 500 500;" xml:space="preserve">
<style type="text/css">
	.st0{fill:#524B48;}
</style>
<path id="Twitter" class="st0" d="M452,125.9c-14.9,6-31.3,10.4-47.7,13.4c17.9-10.4,29.8-25.4,35.8-44.8
	c-16.4,9-34.3,16.4-52.2,19.4c-14.9-16.4-37.3-25.4-59.7-25.4c-44.8,0-82.1,35.8-83.6,80.6c0,6,0,11.9,1.5,17.9
	c-65.7-1.5-128.3-32.8-170.1-83.6c-7.5,11.9-11.9,26.9-11.9,40.3c0,26.9,13.4,52.2,37.3,67.1c-13.4,0-25.4-3-37.3-9v1.5
	c0,38.8,28.4,73.1,67.1,79.1c-7.5,1.5-14.9,3-22.4,3c-6,0-10.4,0-14.9-1.5c11.9,32.8,41.8,56.7,77.6,56.7
	c-35.8,26.9-79.1,38.8-122.4,34.3C88,399,131.2,412.4,176,410.9c128.3,3,234.3-100,235.8-228.3c0-1.5,0-3,0-3c0-3,0-7.5,0-10.4
	C426.7,157.2,441.6,142.3,452,125.9z"/>
</svg>
