<?xml version="1.0" encoding="utf-8"?>
<!-- Generator: Adobe Illustrator 22.1.0, SVG Export Plug-In . SVG Version: 6.00 Build 0)  -->
<svg version="1.1" id="User_icon_logged_1_" xmlns="http://www.w3.org/2000/svg" xmlns:xlink="http://www.w3.org/1999/xlink"
	 x="0px" y="0px" viewBox="0 0 60 60" style="enable-background:new 0 0 60 60;" xml:space="preserve">
<style type="text/css">
	.st0{display:none;}
	.st1{display:inline;}
	.st2{fill:#318B73;}
</style>
<g id="User_icon_not_logged" class="st0">
	<g class="st1">
		<g>
			<path class="st2" d="M51.5,53.2c0,1-0.9,1.8-1.8,1.8s-1.8-0.9-1.8-1.8c0-9.8-8-17.7-17.8-17.7s-17.8,7.9-17.8,17.7
				c0,1-0.9,1.8-1.8,1.8s-1.8-0.9-1.8-1.8c0-11.8,9.6-21.3,21.5-21.3S51.5,41.3,51.5,53.2z M30,30.6c-7.1,0-12.9-5.7-12.9-12.8
				S22.9,5,30,5s12.9,5.7,12.9,12.8S37.1,30.6,30,30.6z M30,27c5,0,9.2-4.1,9.2-9.1S35,8.7,30,8.7s-9.2,4.1-9.2,9.1S25,27,30,27z"/>
		</g>
	</g>
</g>
<g id="User_icon_logged">
	<g>
		<g>
			<path class="st2" d="M30.2,54.7c0,0-18.7,0-19.7,0s-1.8-0.9-1.8-1.8c0-11.8,9.6-21.3,21.5-21.3S51.7,41,51.7,52.8
				c0,1-0.9,1.8-1.8,1.8 M30.2,30.3c-7.2,0-12.9-5.7-12.9-12.8S23,4.7,30.2,4.7s12.9,5.7,12.9,12.8S37.3,30.3,30.2,30.3z"/>
		</g>
	</g>
</g>
</svg>
